<svg width="120" height="37" viewBox="0 0 120 37" fill="none" xmlns="http://www.w3.org/2000/svg">
<mask id="path-1-inside-1_338_3" fill="white">
<path fill-rule="evenodd" clip-rule="evenodd" d="M0.808995 33C0.437304 33 0.195556 33.3912 0.361781 33.7236L1.86178 36.7236C1.94648 36.893 2.11961 37 2.30899 37H45.691C45.8803 37 46.0535 36.893 46.1382 36.7236L47.6382 33.7236C47.8044 33.3912 47.5627 33 47.191 33H0.808995Z"/>
</mask>
<path fill-rule="evenodd" clip-rule="evenodd" d="M0.808995 33C0.437304 33 0.195556 33.3912 0.361781 33.7236L1.86178 36.7236C1.94648 36.893 2.11961 37 2.30899 37H45.691C45.8803 37 46.0535 36.893 46.1382 36.7236L47.6382 33.7236C47.8044 33.3912 47.5627 33 47.191 33H0.808995Z" fill="white"/>
<path d="M47.6382 33.7236L47.5487 33.6789L47.6382 33.7236ZM46.1382 36.7236L46.2276 36.7683L46.1382 36.7236ZM1.86178 36.7236L1.77234 36.7683L1.86178 36.7236ZM1.95122 36.6789L0.451224 33.6789L0.272338 33.7683L1.77234 36.7683L1.95122 36.6789ZM2.30899 37.1H45.691V36.9H2.30899V37.1ZM46.2276 36.7683L47.7276 33.7683L47.5487 33.6789L46.0487 36.6789L46.2276 36.7683ZM47.191 32.9H0.808995V33.1H47.191V32.9ZM47.7276 33.7683C47.9271 33.3694 47.637 32.9 47.191 32.9V33.1C47.4883 33.1 47.6817 33.4129 47.5487 33.6789L47.7276 33.7683ZM45.691 37.1C45.9182 37.1 46.126 36.9716 46.2276 36.7683L46.0487 36.6789C45.981 36.8144 45.8425 36.9 45.691 36.9V37.1ZM0.451224 33.6789C0.318244 33.4129 0.511642 33.1 0.808995 33.1V32.9C0.362966 32.9 0.072868 33.3694 0.272338 33.7683L0.451224 33.6789ZM1.77234 36.7683C1.87397 36.9716 2.08173 37.1 2.30899 37.1V36.9C2.15749 36.9 2.01898 36.8144 1.95122 36.6789L1.77234 36.7683Z" fill="#496D9C" mask="url(#path-1-inside-1_338_3)"/>
<mask id="path-3-inside-2_338_3" fill="white">
<path fill-rule="evenodd" clip-rule="evenodd" d="M2.79541 0.999999C2.79541 0.447714 3.24313 0 3.79541 0H44.462C45.0143 0 45.462 0.447715 45.462 1V31C45.462 31.5523 45.0143 32 44.462 32H3.79541C3.24312 32 2.79541 31.5523 2.79541 31V0.999999ZM4.12883 1.33338H44.1288V17.3333H37.9288C37.7572 16.8478 37.2942 16.5 36.75 16.5C36.2058 16.5 35.7428 16.8478 35.5712 17.3333H34.7623C34.6078 16.5725 33.9352 16 33.1289 16C32.9533 16 32.7841 16.0272 32.6251 16.0775L29.0308 10.6861C29.1967 10.4739 29.2955 10.2069 29.2955 9.91675C29.2955 9.22639 28.7359 8.66675 28.0455 8.66675C27.5659 8.66675 27.1493 8.93691 26.9397 9.33337H21.6788C21.5072 8.84792 21.0442 8.50012 20.5 8.50012C19.9558 8.50012 19.4928 8.84792 19.3212 9.33337H14.4289C14.2745 8.57261 13.6019 8 12.7956 8C11.8751 8 11.1289 8.74619 11.1289 9.66667C11.1289 10.5871 11.8751 11.3333 12.7956 11.3333C13.479 11.3333 14.0663 10.922 14.3235 10.3334H19.3941C19.4591 10.4562 19.5439 10.567 19.6443 10.6613L18.6589 12.5126C18.6072 12.5043 18.5541 12.5 18.5 12.5C18.1299 12.5 17.8067 12.7011 17.6338 13H7.07214C6.91625 12.7593 6.64531 12.6 6.33716 12.6C5.85391 12.6 5.46216 12.9917 5.46216 13.475C5.46216 13.9582 5.85391 14.35 6.33716 14.35C6.62342 14.35 6.87757 14.2125 7.0372 14H17.6338C17.8067 14.2989 18.1299 14.5 18.5 14.5C19.0523 14.5 19.5 14.0523 19.5 13.5C19.5 13.3833 19.48 13.2713 19.4433 13.1672L20.5988 10.9963C21.0365 10.9621 21.4108 10.7024 21.6059 10.3334H26.8666C27.0382 10.8189 27.5013 11.1667 28.0455 11.1667C28.0796 11.1667 28.1134 11.1654 28.1467 11.1627L31.8064 16.6523C31.5906 16.9332 31.4623 17.285 31.4623 17.6667C31.4623 18.5871 32.2085 19.3333 33.1289 19.3333C33.8124 19.3333 34.3998 18.9219 34.657 18.3333H35.6441C35.7264 18.4888 35.8404 18.625 35.9777 18.733L34.2937 22.101C34.2792 22.1004 34.2646 22.1001 34.25 22.1001C33.853 22.1001 33.5101 22.3314 33.3486 22.6666H15.684C15.5399 22.4176 15.2706 22.2501 14.9622 22.2501C14.502 22.2501 14.1289 22.6232 14.1289 23.0835C14.1289 23.5437 14.502 23.9168 14.9622 23.9168C15.1954 23.9168 15.4063 23.821 15.5575 23.6666H33.4258C33.6062 23.9285 33.908 24.1001 34.25 24.1001C34.8023 24.1001 35.25 23.6524 35.25 23.1001C35.25 22.9358 35.2104 22.7808 35.1402 22.6441L36.9721 18.9803C37.3562 18.9115 37.6794 18.6671 37.8559 18.3333H44.1288V30.6667H4.12883V1.33338Z"/>
</mask>
<path fill-rule="evenodd" clip-rule="evenodd" d="M2.79541 0.999999C2.79541 0.447714 3.24313 0 3.79541 0H44.462C45.0143 0 45.462 0.447715 45.462 1V31C45.462 31.5523 45.0143 32 44.462 32H3.79541C3.24312 32 2.79541 31.5523 2.79541 31V0.999999ZM4.12883 1.33338H44.1288V17.3333H37.9288C37.7572 16.8478 37.2942 16.5 36.75 16.5C36.2058 16.5 35.7428 16.8478 35.5712 17.3333H34.7623C34.6078 16.5725 33.9352 16 33.1289 16C32.9533 16 32.7841 16.0272 32.6251 16.0775L29.0308 10.6861C29.1967 10.4739 29.2955 10.2069 29.2955 9.91675C29.2955 9.22639 28.7359 8.66675 28.0455 8.66675C27.5659 8.66675 27.1493 8.93691 26.9397 9.33337H21.6788C21.5072 8.84792 21.0442 8.50012 20.5 8.50012C19.9558 8.50012 19.4928 8.84792 19.3212 9.33337H14.4289C14.2745 8.57261 13.6019 8 12.7956 8C11.8751 8 11.1289 8.74619 11.1289 9.66667C11.1289 10.5871 11.8751 11.3333 12.7956 11.3333C13.479 11.3333 14.0663 10.922 14.3235 10.3334H19.3941C19.4591 10.4562 19.5439 10.567 19.6443 10.6613L18.6589 12.5126C18.6072 12.5043 18.5541 12.5 18.5 12.5C18.1299 12.5 17.8067 12.7011 17.6338 13H7.07214C6.91625 12.7593 6.64531 12.6 6.33716 12.6C5.85391 12.6 5.46216 12.9917 5.46216 13.475C5.46216 13.9582 5.85391 14.35 6.33716 14.35C6.62342 14.35 6.87757 14.2125 7.0372 14H17.6338C17.8067 14.2989 18.1299 14.5 18.5 14.5C19.0523 14.5 19.5 14.0523 19.5 13.5C19.5 13.3833 19.48 13.2713 19.4433 13.1672L20.5988 10.9963C21.0365 10.9621 21.4108 10.7024 21.6059 10.3334H26.8666C27.0382 10.8189 27.5013 11.1667 28.0455 11.1667C28.0796 11.1667 28.1134 11.1654 28.1467 11.1627L31.8064 16.6523C31.5906 16.9332 31.4623 17.285 31.4623 17.6667C31.4623 18.5871 32.2085 19.3333 33.1289 19.3333C33.8124 19.3333 34.3998 18.9219 34.657 18.3333H35.6441C35.7264 18.4888 35.8404 18.625 35.9777 18.733L34.2937 22.101C34.2792 22.1004 34.2646 22.1001 34.25 22.1001C33.853 22.1001 33.5101 22.3314 33.3486 22.6666H15.684C15.5399 22.4176 15.2706 22.2501 14.9622 22.2501C14.502 22.2501 14.1289 22.6232 14.1289 23.0835C14.1289 23.5437 14.502 23.9168 14.9622 23.9168C15.1954 23.9168 15.4063 23.821 15.5575 23.6666H33.4258C33.6062 23.9285 33.908 24.1001 34.25 24.1001C34.8023 24.1001 35.25 23.6524 35.25 23.1001C35.25 22.9358 35.2104 22.7808 35.1402 22.6441L36.9721 18.9803C37.3562 18.9115 37.6794 18.6671 37.8559 18.3333H44.1288V30.6667H4.12883V1.33338Z" fill="white"/>
<path d="M44.1288 1.33338H44.2288V1.23338H44.1288V1.33338ZM4.12883 1.33338V1.23338H4.02883V1.33338H4.12883ZM44.1288 17.3333V17.4333H44.2288V17.3333H44.1288ZM37.9288 17.3333L37.8346 17.3666L37.8581 17.4333H37.9288V17.3333ZM35.5712 17.3333V17.4333H35.6419L35.6654 17.3666L35.5712 17.3333ZM34.7623 17.3333L34.6643 17.3532L34.6805 17.4333H34.7623V17.3333ZM32.6251 16.0775L32.5419 16.133L32.5836 16.1956L32.6553 16.1728L32.6251 16.0775ZM29.0308 10.6861L28.952 10.6245L28.9075 10.6814L28.9476 10.7415L29.0308 10.6861ZM26.9397 9.33337V9.43337H27L27.0281 9.38011L26.9397 9.33337ZM21.6788 9.33337L21.5846 9.36671L21.6081 9.43337H21.6788V9.33337ZM19.3212 9.33337V9.43337H19.3919L19.4154 9.36671L19.3212 9.33337ZM14.4289 9.33337L14.3309 9.35326L14.3472 9.43337H14.4289V9.33337ZM14.3235 10.3334V10.2334H14.2581L14.2319 10.2933L14.3235 10.3334ZM19.3941 10.3334L19.4825 10.2866L19.4544 10.2334H19.3941V10.3334ZM19.6443 10.6613L19.7325 10.7083L19.7685 10.6408L19.7127 10.5884L19.6443 10.6613ZM18.6589 12.5126L18.6432 12.6113L18.7137 12.6226L18.7472 12.5595L18.6589 12.5126ZM17.6338 13V13.1H17.6915L17.7203 13.0501L17.6338 13ZM7.07214 13L6.98821 13.0544L7.01777 13.1H7.07214V13ZM7.0372 14V13.9H6.98725L6.95725 13.9399L7.0372 14ZM17.6338 14L17.7203 13.9499L17.6915 13.9H17.6338V14ZM19.4433 13.1672L19.355 13.1203L19.3344 13.1591L19.349 13.2005L19.4433 13.1672ZM20.5988 10.9963L20.591 10.8966L20.5363 10.9009L20.5105 10.9493L20.5988 10.9963ZM21.6059 10.3334V10.2334H21.5456L21.5175 10.2866L21.6059 10.3334ZM26.8666 10.3334L26.9609 10.3001L26.9374 10.2334H26.8666V10.3334ZM28.1467 11.1627L28.2299 11.1072L28.1973 11.0583L28.1387 11.063L28.1467 11.1627ZM31.8064 16.6523L31.8857 16.7132L31.9294 16.6564L31.8896 16.5968L31.8064 16.6523ZM34.657 18.3333V18.2333H34.5915L34.5653 18.2932L34.657 18.3333ZM35.6441 18.3333L35.7325 18.2865L35.7044 18.2333H35.6441V18.3333ZM35.9777 18.733L36.0671 18.7777L36.1036 18.7048L36.0395 18.6544L35.9777 18.733ZM34.2937 22.101L34.2894 22.2009L34.3541 22.2037L34.3831 22.1458L34.2937 22.101ZM33.3486 22.6666V22.7666H33.4114L33.4387 22.71L33.3486 22.6666ZM15.684 22.6666L15.5974 22.7167L15.6263 22.7666H15.684V22.6666ZM15.5575 23.6666V23.5666H15.5155L15.4861 23.5966L15.5575 23.6666ZM33.4258 23.6666L33.5082 23.6099L33.4784 23.5666H33.4258V23.6666ZM35.1402 22.6441L35.0508 22.5993L35.0281 22.6446L35.0512 22.6897L35.1402 22.6441ZM36.9721 18.9803L36.9544 18.8819L36.905 18.8908L36.8826 18.9356L36.9721 18.9803ZM37.8559 18.3333V18.2333H37.7956L37.7675 18.2865L37.8559 18.3333ZM44.1288 18.3333H44.2288V18.2333H44.1288V18.3333ZM44.1288 30.6667V30.7667H44.2288V30.6667H44.1288ZM4.12883 30.6667H4.02883V30.7667H4.12883V30.6667ZM3.79541 -0.1C3.1879 -0.1 2.69541 0.392486 2.69541 0.999999H2.89541C2.89541 0.502943 3.29835 0.1 3.79541 0.1V-0.1ZM44.462 -0.1H3.79541V0.1H44.462V-0.1ZM45.562 1C45.562 0.392487 45.0696 -0.1 44.462 -0.1V0.1C44.9591 0.1 45.362 0.502944 45.362 1H45.562ZM45.562 31V1H45.362V31H45.562ZM44.462 32.1C45.0696 32.1 45.562 31.6075 45.562 31H45.362C45.362 31.497 44.9591 31.9 44.462 31.9V32.1ZM3.79541 32.1H44.462V31.9H3.79541V32.1ZM2.69541 31C2.69541 31.6075 3.1879 32.1 3.79541 32.1V31.9C3.29835 31.9 2.89541 31.497 2.89541 31H2.69541ZM2.69541 0.999999V31H2.89541V0.999999H2.69541ZM44.1288 1.23338H4.12883V1.43338H44.1288V1.23338ZM44.2288 17.3333V1.33338H44.0288V17.3333H44.2288ZM37.9288 17.4333H44.1288V17.2333H37.9288V17.4333ZM36.75 16.6C37.2505 16.6 37.6766 16.9198 37.8346 17.3666L38.0231 17.2999C37.8378 16.7758 37.3379 16.4 36.75 16.4V16.6ZM35.6654 17.3666C35.8234 16.9198 36.2495 16.6 36.75 16.6V16.4C36.1621 16.4 35.6622 16.7758 35.4769 17.2999L35.6654 17.3666ZM34.7623 17.4333H35.5712V17.2333H34.7623V17.4333ZM33.1289 16.1C33.8867 16.1 34.5191 16.6381 34.6643 17.3532L34.8603 17.3134C34.6965 16.507 33.9837 15.9 33.1289 15.9V16.1ZM32.6553 16.1728C32.8046 16.1256 32.9637 16.1 33.1289 16.1V15.9C32.943 15.9 32.7635 15.9288 32.5949 15.9822L32.6553 16.1728ZM28.9476 10.7415L32.5419 16.133L32.7083 16.022L29.114 10.6306L28.9476 10.7415ZM29.1955 9.91675C29.1955 10.1838 29.1046 10.4293 28.952 10.6245L29.1096 10.7477C29.2887 10.5186 29.3955 10.23 29.3955 9.91675H29.1955ZM28.0455 8.76675C28.6807 8.76675 29.1955 9.28162 29.1955 9.91675H29.3955C29.3955 9.17116 28.7911 8.56675 28.0455 8.56675V8.76675ZM27.0281 9.38011C27.2211 9.01511 27.6044 8.76675 28.0455 8.76675V8.56675C27.5274 8.56675 27.0775 8.85871 26.8513 9.28664L27.0281 9.38011ZM21.6788 9.43337H26.9397V9.23337H21.6788V9.43337ZM20.5 8.60012C21.0005 8.60012 21.4266 8.91995 21.5846 9.36671L21.7731 9.30004C21.5878 8.77589 21.0879 8.40012 20.5 8.40012V8.60012ZM19.4154 9.36671C19.5734 8.91995 19.9995 8.60012 20.5 8.60012V8.40012C19.9121 8.40012 19.4122 8.77589 19.2269 9.30004L19.4154 9.36671ZM14.4289 9.43337H19.3212V9.23337H14.4289V9.43337ZM12.7956 8.1C13.5534 8.1 14.1858 8.63819 14.3309 9.35326L14.5269 9.31348C14.3632 8.50703 13.6504 7.9 12.7956 7.9V8.1ZM11.2289 9.66667C11.2289 8.80142 11.9303 8.1 12.7956 8.1V7.9C11.8199 7.9 11.0289 8.69096 11.0289 9.66667H11.2289ZM12.7956 11.2333C11.9303 11.2333 11.2289 10.5319 11.2289 9.66667H11.0289C11.0289 10.6424 11.8199 11.4333 12.7956 11.4333V11.2333ZM14.2319 10.2933C13.99 10.8468 13.4378 11.2333 12.7956 11.2333V11.4333C13.5202 11.4333 14.1426 10.9971 14.4152 10.3734L14.2319 10.2933ZM19.3941 10.2334H14.3235V10.4334H19.3941V10.2334ZM19.7127 10.5884C19.6203 10.5016 19.5423 10.3997 19.4825 10.2866L19.3057 10.3801C19.3759 10.5128 19.4674 10.6324 19.5758 10.7342L19.7127 10.5884ZM18.7472 12.5595L19.7325 10.7083L19.556 10.6143L18.5707 12.4656L18.7472 12.5595ZM18.5 12.6C18.5488 12.6 18.5966 12.6039 18.6432 12.6113L18.6747 12.4138C18.6177 12.4047 18.5594 12.4 18.5 12.4V12.6ZM17.7203 13.0501C17.8761 12.7808 18.167 12.6 18.5 12.6V12.4C18.0927 12.4 17.7373 12.6214 17.5472 12.9499L17.7203 13.0501ZM7.07214 13.1H17.6338V12.9H7.07214V13.1ZM6.33716 12.7C6.60999 12.7 6.84997 12.8409 6.98821 13.0544L7.15608 12.9456C6.98254 12.6777 6.68063 12.5 6.33716 12.5V12.7ZM5.56216 13.475C5.56216 13.047 5.90914 12.7 6.33716 12.7V12.5C5.79868 12.5 5.36216 12.9365 5.36216 13.475H5.56216ZM6.33716 14.25C5.90914 14.25 5.56216 13.903 5.56216 13.475H5.36216C5.36216 14.0135 5.79868 14.45 6.33716 14.45V14.25ZM6.95725 13.9399C6.81569 14.1284 6.59064 14.25 6.33716 14.25V14.45C6.65619 14.45 6.93945 14.2966 7.11716 14.0601L6.95725 13.9399ZM17.6338 13.9H7.0372V14.1H17.6338V13.9ZM18.5 14.4C18.167 14.4 17.8761 14.2192 17.7203 13.9499L17.5472 14.0501C17.7373 14.3786 18.0927 14.6 18.5 14.6V14.4ZM19.4 13.5C19.4 13.9971 18.9971 14.4 18.5 14.4V14.6C19.1075 14.6 19.6 14.1075 19.6 13.5H19.4ZM19.349 13.2005C19.382 13.2941 19.4 13.3948 19.4 13.5H19.6C19.6 13.3718 19.578 13.2486 19.5376 13.134L19.349 13.2005ZM20.5105 10.9493L19.355 13.1203L19.5316 13.2142L20.6871 11.0433L20.5105 10.9493ZM21.5175 10.2866C21.3379 10.6264 20.9934 10.8651 20.591 10.8966L20.6066 11.096C21.0796 11.059 21.4838 10.7784 21.6943 10.3801L21.5175 10.2866ZM26.8666 10.2334H21.6059V10.4334H26.8666V10.2334ZM28.0455 11.0667C27.545 11.0667 27.1188 10.7469 26.9609 10.3001L26.7724 10.3667C26.9576 10.8909 27.4576 11.2667 28.0455 11.2667V11.0667ZM28.1387 11.063C28.108 11.0655 28.0769 11.0667 28.0455 11.0667V11.2667C28.0823 11.2667 28.1187 11.2653 28.1547 11.2624L28.1387 11.063ZM31.8896 16.5968L28.2299 11.1072L28.0635 11.2182L31.7232 16.7077L31.8896 16.5968ZM31.5623 17.6667C31.5623 17.3078 31.6828 16.9773 31.8857 16.7132L31.7271 16.5913C31.4983 16.8892 31.3623 17.2622 31.3623 17.6667H31.5623ZM33.1289 19.2333C32.2637 19.2333 31.5623 18.5319 31.5623 17.6667H31.3623C31.3623 18.6424 32.1532 19.4333 33.1289 19.4333V19.2333ZM34.5653 18.2932C34.3235 18.8468 33.7713 19.2333 33.1289 19.2333V19.4333C33.8536 19.4333 34.4761 18.9971 34.7486 18.3733L34.5653 18.2932ZM35.6441 18.2333H34.657V18.4333H35.6441V18.2333ZM36.0395 18.6544C35.9132 18.5549 35.8082 18.4296 35.7325 18.2865L35.5557 18.38C35.6445 18.548 35.7677 18.695 35.9159 18.8115L36.0395 18.6544ZM34.3831 22.1458L36.0671 18.7777L35.8883 18.6882L34.2042 22.0563L34.3831 22.1458ZM34.25 22.2001C34.2632 22.2001 34.2763 22.2004 34.2894 22.2009L34.298 22.0011C34.2821 22.0004 34.2661 22.0001 34.25 22.0001V22.2001ZM33.4387 22.71C33.5841 22.4081 33.8929 22.2001 34.25 22.2001V22.0001C33.8132 22.0001 33.436 22.2547 33.2585 22.6232L33.4387 22.71ZM15.684 22.7666H33.3486V22.5666H15.684V22.7666ZM14.9622 22.3501C15.2335 22.3501 15.4705 22.4973 15.5974 22.7167L15.7705 22.6165C15.6093 22.3379 15.3078 22.1501 14.9622 22.1501V22.3501ZM14.2289 23.0835C14.2289 22.6784 14.5572 22.3501 14.9622 22.3501V22.1501C14.4468 22.1501 14.0289 22.568 14.0289 23.0835H14.2289ZM14.9622 23.8168C14.5572 23.8168 14.2289 23.4885 14.2289 23.0835H14.0289C14.0289 23.5989 14.4468 24.0168 14.9622 24.0168V23.8168ZM15.4861 23.5966C15.3529 23.7326 15.1675 23.8168 14.9622 23.8168V24.0168C15.2234 24.0168 15.4597 23.9094 15.6289 23.7366L15.4861 23.5966ZM33.4258 23.5666H15.5575V23.7666H33.4258V23.5666ZM34.25 24.0001C33.9423 24.0001 33.6707 23.8458 33.5082 23.6099L33.3435 23.7233C33.5417 24.0111 33.8738 24.2001 34.25 24.2001V24.0001ZM35.15 23.1001C35.15 23.5972 34.7471 24.0001 34.25 24.0001V24.2001C34.8575 24.2001 35.35 23.7076 35.35 23.1001H35.15ZM35.0512 22.6897C35.1143 22.8127 35.15 22.9521 35.15 23.1001H35.35C35.35 22.9196 35.3064 22.7489 35.2292 22.5984L35.0512 22.6897ZM36.8826 18.9356L35.0508 22.5993L35.2296 22.6888L37.0615 19.0251L36.8826 18.9356ZM37.7675 18.2865C37.605 18.5939 37.3075 18.8186 36.9544 18.8819L36.9897 19.0788C37.4048 19.0043 37.7538 18.7404 37.9443 18.38L37.7675 18.2865ZM44.1288 18.2333H37.8559V18.4333H44.1288V18.2333ZM44.2288 30.6667V18.3333H44.0288V30.6667H44.2288ZM4.12883 30.7667H44.1288V30.5667H4.12883V30.7667ZM4.02883 1.33338V30.6667H4.22883V1.33338H4.02883Z" fill="#496D9C" mask="url(#path-3-inside-2_338_3)"/>
<path d="M56.0266 23.216C55.4386 23.216 54.9166 23.144 54.4606 23C54.0166 22.868 53.6626 22.586 53.3986 22.154C53.1466 21.71 53.0206 21.056 53.0206 20.192V14.612C53.0206 13.976 53.1466 13.484 53.3986 13.136C53.6626 12.788 54.0226 12.548 54.4786 12.416C54.9346 12.272 55.4566 12.2 56.0446 12.2C56.6446 12.2 57.1606 12.272 57.5926 12.416C58.0366 12.56 58.3786 12.806 58.6186 13.154C58.8586 13.502 58.9786 13.988 58.9786 14.612V16.808H56.8906V14.522C56.8906 14.234 56.8546 14.018 56.7826 13.874C56.7106 13.718 56.6086 13.616 56.4766 13.568C56.3566 13.52 56.2126 13.496 56.0446 13.496C55.8766 13.496 55.7266 13.52 55.5946 13.568C55.4626 13.616 55.3606 13.718 55.2886 13.874C55.2166 14.018 55.1806 14.234 55.1806 14.522V20.966C55.1806 21.242 55.2166 21.458 55.2886 21.614C55.3606 21.758 55.4626 21.86 55.5946 21.92C55.7266 21.968 55.8766 21.992 56.0446 21.992C56.2126 21.992 56.3566 21.968 56.4766 21.92C56.6086 21.86 56.7106 21.758 56.7826 21.614C56.8546 21.458 56.8906 21.242 56.8906 20.966V18.86H58.9786V20.174C58.9786 21.05 58.8586 21.71 58.6186 22.154C58.3786 22.586 58.0366 22.868 57.5926 23C57.1606 23.144 56.6386 23.216 56.0266 23.216ZM63.1269 23.216C62.5389 23.216 62.0229 23.144 61.5789 23C61.1349 22.868 60.7869 22.586 60.5349 22.154C60.2949 21.71 60.1749 21.056 60.1749 20.192V14.612C60.1749 13.976 60.2949 13.484 60.5349 13.136C60.7869 12.788 61.1349 12.548 61.5789 12.416C62.0349 12.272 62.5569 12.2 63.1449 12.2C63.7209 12.2 64.2309 12.272 64.6749 12.416C65.1309 12.56 65.4849 12.806 65.7369 13.154C66.0009 13.502 66.1329 13.988 66.1329 14.612V20.174C66.1329 21.05 66.0009 21.71 65.7369 22.154C65.4849 22.586 65.1309 22.868 64.6749 23C64.2309 23.144 63.7149 23.216 63.1269 23.216ZM63.1269 21.992C63.3069 21.992 63.4629 21.962 63.5949 21.902C63.7389 21.842 63.8469 21.74 63.9189 21.596C64.0029 21.44 64.0449 21.23 64.0449 20.966V14.522C64.0449 14.258 64.0029 14.054 63.9189 13.91C63.8469 13.754 63.7389 13.646 63.5949 13.586C63.4629 13.526 63.3069 13.496 63.1269 13.496C62.9469 13.496 62.7909 13.526 62.6589 13.586C62.5269 13.646 62.4189 13.754 62.3349 13.91C62.2629 14.054 62.2269 14.258 62.2269 14.522V20.966C62.2269 21.23 62.2629 21.44 62.3349 21.596C62.4189 21.74 62.5269 21.842 62.6589 21.902C62.7909 21.962 62.9469 21.992 63.1269 21.992ZM67.5255 23V12.362H70.1355L71.5935 19.238L73.0695 12.362H75.6615V23H73.8255V15.044L72.2955 23H70.8735L69.3615 15.044V23H67.5255ZM77.1759 23V12.362H80.9559C81.6639 12.362 82.1979 12.524 82.5579 12.848C82.9299 13.16 83.1159 13.598 83.1159 14.162V15.998C83.1159 16.478 83.0559 16.928 82.9359 17.348C82.8159 17.756 82.5999 18.086 82.2879 18.338C81.9759 18.59 81.5259 18.716 80.9379 18.716H79.3539V23H77.1759ZM79.3539 17.564H80.1639C80.4519 17.564 80.6679 17.426 80.8119 17.15C80.9559 16.874 81.0279 16.418 81.0279 15.782V15.062C81.0279 14.498 80.9679 14.096 80.8479 13.856C80.7279 13.616 80.5539 13.496 80.3259 13.496H79.3539V17.564ZM87.1408 23.216C86.7088 23.216 86.3128 23.186 85.9528 23.126C85.5928 23.066 85.2808 22.94 85.0168 22.748C84.7528 22.556 84.5488 22.274 84.4048 21.902C84.2608 21.518 84.1888 21.002 84.1888 20.354V12.362H86.2768V20.948C86.2768 21.2 86.3128 21.404 86.3848 21.56C86.4688 21.704 86.5768 21.8 86.7088 21.848C86.8408 21.896 86.9848 21.92 87.1408 21.92C87.2848 21.92 87.4228 21.896 87.5548 21.848C87.6868 21.8 87.7888 21.704 87.8608 21.56C87.9448 21.404 87.9868 21.2 87.9868 20.948V12.362H90.0748V20.354C90.0748 20.99 90.0028 21.5 89.8588 21.884C89.7148 22.268 89.5108 22.556 89.2468 22.748C88.9948 22.94 88.6828 23.066 88.3108 23.126C87.9508 23.186 87.5608 23.216 87.1408 23.216Z" fill="white"/>
<path d="M56.0266 23.216C55.4386 23.216 54.9166 23.144 54.4606 23C54.0166 22.868 53.6626 22.586 53.3986 22.154C53.1466 21.71 53.0206 21.056 53.0206 20.192V14.612C53.0206 13.976 53.1466 13.484 53.3986 13.136C53.6626 12.788 54.0226 12.548 54.4786 12.416C54.9346 12.272 55.4566 12.2 56.0446 12.2C56.6446 12.2 57.1606 12.272 57.5926 12.416C58.0366 12.56 58.3786 12.806 58.6186 13.154C58.8586 13.502 58.9786 13.988 58.9786 14.612V16.808H56.8906V14.522C56.8906 14.234 56.8546 14.018 56.7826 13.874C56.7106 13.718 56.6086 13.616 56.4766 13.568C56.3566 13.52 56.2126 13.496 56.0446 13.496C55.8766 13.496 55.7266 13.52 55.5946 13.568C55.4626 13.616 55.3606 13.718 55.2886 13.874C55.2166 14.018 55.1806 14.234 55.1806 14.522V20.966C55.1806 21.242 55.2166 21.458 55.2886 21.614C55.3606 21.758 55.4626 21.86 55.5946 21.92C55.7266 21.968 55.8766 21.992 56.0446 21.992C56.2126 21.992 56.3566 21.968 56.4766 21.92C56.6086 21.86 56.7106 21.758 56.7826 21.614C56.8546 21.458 56.8906 21.242 56.8906 20.966V18.86H58.9786V20.174C58.9786 21.05 58.8586 21.71 58.6186 22.154C58.3786 22.586 58.0366 22.868 57.5926 23C57.1606 23.144 56.6386 23.216 56.0266 23.216ZM63.1269 23.216C62.5389 23.216 62.0229 23.144 61.5789 23C61.1349 22.868 60.7869 22.586 60.5349 22.154C60.2949 21.71 60.1749 21.056 60.1749 20.192V14.612C60.1749 13.976 60.2949 13.484 60.5349 13.136C60.7869 12.788 61.1349 12.548 61.5789 12.416C62.0349 12.272 62.5569 12.2 63.1449 12.2C63.7209 12.2 64.2309 12.272 64.6749 12.416C65.1309 12.56 65.4849 12.806 65.7369 13.154C66.0009 13.502 66.1329 13.988 66.1329 14.612V20.174C66.1329 21.05 66.0009 21.71 65.7369 22.154C65.4849 22.586 65.1309 22.868 64.6749 23C64.2309 23.144 63.7149 23.216 63.1269 23.216ZM63.1269 21.992C63.3069 21.992 63.4629 21.962 63.5949 21.902C63.7389 21.842 63.8469 21.74 63.9189 21.596C64.0029 21.44 64.0449 21.23 64.0449 20.966V14.522C64.0449 14.258 64.0029 14.054 63.9189 13.91C63.8469 13.754 63.7389 13.646 63.5949 13.586C63.4629 13.526 63.3069 13.496 63.1269 13.496C62.9469 13.496 62.7909 13.526 62.6589 13.586C62.5269 13.646 62.4189 13.754 62.3349 13.91C62.2629 14.054 62.2269 14.258 62.2269 14.522V20.966C62.2269 21.23 62.2629 21.44 62.3349 21.596C62.4189 21.74 62.5269 21.842 62.6589 21.902C62.7909 21.962 62.9469 21.992 63.1269 21.992ZM67.5255 23V12.362H70.1355L71.5935 19.238L73.0695 12.362H75.6615V23H73.8255V15.044L72.2955 23H70.8735L69.3615 15.044V23H67.5255ZM77.1759 23V12.362H80.9559C81.6639 12.362 82.1979 12.524 82.5579 12.848C82.9299 13.16 83.1159 13.598 83.1159 14.162V15.998C83.1159 16.478 83.0559 16.928 82.9359 17.348C82.8159 17.756 82.5999 18.086 82.2879 18.338C81.9759 18.59 81.5259 18.716 80.9379 18.716H79.3539V23H77.1759ZM79.3539 17.564H80.1639C80.4519 17.564 80.6679 17.426 80.8119 17.15C80.9559 16.874 81.0279 16.418 81.0279 15.782V15.062C81.0279 14.498 80.9679 14.096 80.8479 13.856C80.7279 13.616 80.5539 13.496 80.3259 13.496H79.3539V17.564ZM87.1408 23.216C86.7088 23.216 86.3128 23.186 85.9528 23.126C85.5928 23.066 85.2808 22.94 85.0168 22.748C84.7528 22.556 84.5488 22.274 84.4048 21.902C84.2608 21.518 84.1888 21.002 84.1888 20.354V12.362H86.2768V20.948C86.2768 21.2 86.3128 21.404 86.3848 21.56C86.4688 21.704 86.5768 21.8 86.7088 21.848C86.8408 21.896 86.9848 21.92 87.1408 21.92C87.2848 21.92 87.4228 21.896 87.5548 21.848C87.6868 21.8 87.7888 21.704 87.8608 21.56C87.9448 21.404 87.9868 21.2 87.9868 20.948V12.362H90.0748V20.354C90.0748 20.99 90.0028 21.5 89.8588 21.884C89.7148 22.268 89.5108 22.556 89.2468 22.748C88.9948 22.94 88.6828 23.066 88.3108 23.126C87.9508 23.186 87.5608 23.216 87.1408 23.216Z" fill="white"/>
<path d="M92.0228 23V12.362H92.7968L96.4508 21.164V12.362H97.2428V23H96.4328L92.8328 14.45V23H92.0228ZM99.6869 23V12.362H104.205V13.01H100.605V17.078H103.431V17.762H100.605V22.37H104.205V23H99.6869ZM105.874 23V12.362H109.078C109.654 12.362 110.128 12.5 110.5 12.776C110.872 13.052 111.058 13.502 111.058 14.126V15.854C111.058 16.49 110.866 16.97 110.482 17.294C110.11 17.618 109.606 17.786 108.97 17.798V17.78C109.366 17.78 109.66 17.912 109.852 18.176C110.044 18.428 110.218 18.818 110.374 19.346L111.49 23H110.554L109.528 19.4C109.468 19.172 109.384 18.95 109.276 18.734C109.168 18.518 109.036 18.344 108.88 18.212C108.724 18.068 108.52 17.996 108.268 17.996H106.774V23H105.874ZM106.774 17.384H108.574C109.114 17.384 109.516 17.264 109.78 17.024C110.056 16.772 110.194 16.346 110.194 15.746V14.27C110.194 13.79 110.062 13.442 109.798 13.226C109.546 13.01 109.24 12.902 108.88 12.902H106.774V17.384ZM113.31 23V12.362H116.352C116.808 12.362 117.198 12.428 117.522 12.56C117.846 12.692 118.098 12.92 118.278 13.244C118.458 13.568 118.548 14.018 118.548 14.594V20.678C118.548 21.29 118.452 21.77 118.26 22.118C118.068 22.454 117.798 22.688 117.45 22.82C117.114 22.94 116.718 23 116.262 23H113.31ZM114.21 22.478H116.154C116.622 22.478 116.994 22.358 117.27 22.118C117.546 21.866 117.684 21.392 117.684 20.696V14.702C117.684 14.006 117.546 13.538 117.27 13.298C116.994 13.046 116.622 12.92 116.154 12.92H114.21V22.478Z" fill="white"/>
<path d="M55.9344 29.5778L55.0794 25.1453H55.4394L56.1669 29.0528H56.1444L56.8719 25.1453H57.2319L56.3694 29.5778H55.9344ZM58.725 29.5778V25.1453H60.6075V25.4153H59.1075V27.1103H60.285V27.3953H59.1075V29.3153H60.6075V29.5778H58.725ZM62.1281 29.5778V25.1453H62.4506L63.9731 28.8128V25.1453H64.3031V29.5778H63.9656L62.4656 26.0153V29.5778H62.1281ZM66.4839 29.5778V25.4153H65.7189V25.1453H67.6239V25.4153H66.8439V29.5778H66.4839ZM68.4566 29.5778L69.4841 25.1453H69.9266L70.9466 29.5778H70.5566L70.2941 28.4903H69.0791L68.8241 29.5778H68.4566ZM69.1016 28.2803H70.2791L69.6941 25.6628L69.1016 28.2803ZM75.5864 29.6378C75.3114 29.6378 75.0914 29.5853 74.9264 29.4803C74.7664 29.3703 74.6514 29.2228 74.5814 29.0378C74.5164 28.8528 74.4839 28.6403 74.4839 28.4003C74.4839 28.0853 74.5439 27.8328 74.6639 27.6428C74.7839 27.4478 74.9564 27.3203 75.1814 27.2603C75.1364 27.2003 75.0914 27.1128 75.0464 26.9978C75.0014 26.8778 74.9789 26.7378 74.9789 26.5778C74.9839 26.3328 75.0589 26.1378 75.2039 25.9928C75.3489 25.8478 75.5789 25.7753 75.8939 25.7753C76.0439 25.7753 76.1789 25.7878 76.2989 25.8128C76.4239 25.8328 76.5289 25.8553 76.6139 25.8803C76.6989 25.9053 76.7564 25.9278 76.7864 25.9478V26.2403C76.7664 26.2303 76.7139 26.2128 76.6289 26.1878C76.5489 26.1628 76.4489 26.1403 76.3289 26.1203C76.2139 26.0953 76.0914 26.0828 75.9614 26.0828C75.7814 26.0828 75.6439 26.1178 75.5489 26.1878C75.4539 26.2578 75.3914 26.3478 75.3614 26.4578C75.3314 26.5628 75.3289 26.6753 75.3539 26.7953C75.3839 26.9153 75.4289 27.0253 75.4889 27.1253C75.5139 27.1653 75.5589 27.2253 75.6239 27.3053C75.6889 27.3853 75.7614 27.4753 75.8414 27.5753C75.9214 27.6703 76.0014 27.7653 76.0814 27.8603C76.1664 27.9553 76.2389 28.0378 76.2989 28.1078C76.3639 28.1778 76.4089 28.2278 76.4339 28.2578L76.4414 27.4253H77.4614V27.6803H76.7189C76.7189 27.8403 76.7189 27.9703 76.7189 28.0703C76.7189 28.1703 76.7164 28.2528 76.7114 28.3178C76.7114 28.3828 76.7089 28.4503 76.7039 28.5203C76.8589 28.6803 77.0039 28.8253 77.1389 28.9553C77.2789 29.0853 77.3864 29.1753 77.4614 29.2253V29.5928C77.3914 29.5828 77.2764 29.5103 77.1164 29.3753C76.9564 29.2353 76.7864 29.0728 76.6064 28.8878C76.5614 29.0978 76.4839 29.2578 76.3739 29.3678C76.2639 29.4728 76.1389 29.5428 75.9989 29.5778C75.8589 29.6178 75.7214 29.6378 75.5864 29.6378ZM75.6014 29.3678C75.8314 29.3678 76.0114 29.3053 76.1414 29.1803C76.2764 29.0503 76.3514 28.8753 76.3664 28.6553C76.1714 28.4403 75.9789 28.2278 75.7889 28.0178C75.5989 27.8028 75.4514 27.6303 75.3464 27.5003C75.1814 27.5453 75.0489 27.6353 74.9489 27.7703C74.8489 27.9053 74.7989 28.1103 74.7989 28.3853C74.7939 28.7153 74.8639 28.9628 75.0089 29.1278C75.1589 29.2878 75.3564 29.3678 75.6014 29.3678ZM81.3823 29.5778V25.1453H82.7173C82.9573 25.1453 83.1548 25.2028 83.3098 25.3178C83.4648 25.4328 83.5423 25.6203 83.5423 25.8803V26.6003C83.5423 26.8653 83.4623 27.0653 83.3023 27.2003C83.1473 27.3353 82.9373 27.4053 82.6723 27.4103V27.4028C82.8373 27.4028 82.9598 27.4578 83.0398 27.5678C83.1198 27.6728 83.1923 27.8353 83.2573 28.0553L83.7223 29.5778H83.3323L82.9048 28.0778C82.8798 27.9828 82.8448 27.8903 82.7998 27.8003C82.7548 27.7103 82.6998 27.6378 82.6348 27.5828C82.5698 27.5228 82.4848 27.4928 82.3798 27.4928H81.7573V29.5778H81.3823ZM81.7573 27.2378H82.5073C82.7323 27.2378 82.8998 27.1878 83.0098 27.0878C83.1248 26.9828 83.1823 26.8053 83.1823 26.5553V25.9403C83.1823 25.7403 83.1273 25.5953 83.0173 25.5053C82.9123 25.4153 82.7848 25.3703 82.6348 25.3703H81.7573V27.2378ZM85.3054 29.5778V25.1453H87.1879V25.4153H85.6879V27.1103H86.8654V27.3953H85.6879V29.3153H87.1879V29.5778H85.3054ZM88.7086 29.5778V25.1453H90.0361C90.2761 25.1453 90.4736 25.2028 90.6286 25.3178C90.7836 25.4328 90.8611 25.6203 90.8611 25.8803V26.7053C90.8611 26.8703 90.8361 27.0228 90.7861 27.1628C90.7411 27.3028 90.6511 27.4178 90.5161 27.5078C90.3811 27.5928 90.1811 27.6353 89.9161 27.6353H89.0911V29.5778H88.7086ZM89.0911 27.4028H89.8261C90.0461 27.4028 90.2136 27.3428 90.3286 27.2228C90.4436 27.0978 90.5011 26.9078 90.5011 26.6528V26.0078C90.5011 25.7878 90.4461 25.6278 90.3361 25.5278C90.2311 25.4228 90.1061 25.3703 89.9611 25.3703H89.0911V27.4028ZM92.0148 29.5778L93.0423 25.1453H93.4848L94.5048 29.5778H94.1148L93.8523 28.4903H92.6373L92.3823 29.5778H92.0148ZM92.6598 28.2803H93.8373L93.2523 25.6628L92.6598 28.2803ZM95.9689 29.5778V25.1453H97.3039C97.5439 25.1453 97.7414 25.2028 97.8964 25.3178C98.0514 25.4328 98.1289 25.6203 98.1289 25.8803V26.6003C98.1289 26.8653 98.0489 27.0653 97.8889 27.2003C97.7339 27.3353 97.5239 27.4053 97.2589 27.4103V27.4028C97.4239 27.4028 97.5464 27.4578 97.6264 27.5678C97.7064 27.6728 97.7789 27.8353 97.8439 28.0553L98.3089 29.5778H97.9189L97.4914 28.0778C97.4664 27.9828 97.4314 27.8903 97.3864 27.8003C97.3414 27.7103 97.2864 27.6378 97.2214 27.5828C97.1564 27.5228 97.0714 27.4928 96.9664 27.4928H96.3439V29.5778H95.9689ZM96.3439 27.2378H97.0939C97.3189 27.2378 97.4864 27.1878 97.5964 27.0878C97.7114 26.9828 97.7689 26.8053 97.7689 26.5553V25.9403C97.7689 25.7403 97.7139 25.5953 97.6039 25.5053C97.4989 25.4153 97.3714 25.3703 97.2214 25.3703H96.3439V27.2378ZM99.5096 29.5778L100.537 25.1453H100.98L102 29.5778H101.61L101.347 28.4903H100.132L99.8771 29.5778H99.5096ZM100.155 28.2803H101.332L100.747 25.6628L100.155 28.2803ZM104.476 29.6678C104.266 29.6678 104.079 29.6428 103.914 29.5928C103.754 29.5478 103.626 29.4503 103.531 29.3003C103.436 29.1453 103.389 28.9128 103.389 28.6028V26.0678C103.389 25.7828 103.436 25.5703 103.531 25.4303C103.626 25.2903 103.756 25.1978 103.921 25.1528C104.091 25.1078 104.279 25.0853 104.484 25.0853C104.699 25.0853 104.886 25.1103 105.046 25.1603C105.206 25.2053 105.331 25.2978 105.421 25.4378C105.516 25.5778 105.564 25.7878 105.564 26.0678V26.8028H105.204V26.0678C105.204 25.8478 105.171 25.6853 105.106 25.5803C105.046 25.4753 104.961 25.4053 104.851 25.3703C104.746 25.3353 104.624 25.3178 104.484 25.3178C104.344 25.3178 104.219 25.3353 104.109 25.3703C103.999 25.4053 103.911 25.4753 103.846 25.5803C103.786 25.6853 103.756 25.8478 103.756 26.0678V28.6853C103.756 28.9053 103.786 29.0678 103.846 29.1728C103.911 29.2778 103.999 29.3478 104.109 29.3828C104.219 29.4178 104.344 29.4353 104.484 29.4353C104.624 29.4353 104.746 29.4178 104.851 29.3828C104.961 29.3478 105.046 29.2778 105.106 29.1728C105.171 29.0678 105.204 28.9053 105.204 28.6853V28.0703H105.564V28.6028C105.564 28.9178 105.516 29.1503 105.421 29.3003C105.331 29.4503 105.204 29.5478 105.039 29.5928C104.879 29.6428 104.691 29.6678 104.476 29.6678ZM107.292 29.5778V25.1453H107.659V29.5778H107.292ZM110.506 29.6678C110.296 29.6678 110.111 29.6428 109.951 29.5928C109.791 29.5478 109.663 29.4503 109.568 29.3003C109.473 29.1453 109.426 28.9128 109.426 28.6028V26.0678C109.426 25.7828 109.473 25.5703 109.568 25.4303C109.663 25.2903 109.793 25.1978 109.958 25.1528C110.123 25.1078 110.311 25.0853 110.521 25.0853C110.731 25.0853 110.916 25.1103 111.076 25.1603C111.241 25.2053 111.368 25.2978 111.458 25.4378C111.553 25.5778 111.601 25.7878 111.601 26.0678V28.6028C111.601 28.9178 111.553 29.1503 111.458 29.3003C111.368 29.4503 111.241 29.5478 111.076 29.5928C110.911 29.6428 110.721 29.6678 110.506 29.6678ZM110.513 29.4353C110.658 29.4353 110.783 29.4178 110.888 29.3828C110.998 29.3478 111.083 29.2778 111.143 29.1728C111.208 29.0628 111.241 28.9003 111.241 28.6853V26.0753C111.241 25.8553 111.208 25.6928 111.143 25.5878C111.083 25.4828 110.998 25.4128 110.888 25.3778C110.778 25.3428 110.653 25.3253 110.513 25.3253C110.368 25.3253 110.241 25.3428 110.131 25.3778C110.021 25.4128 109.936 25.4828 109.876 25.5878C109.816 25.6928 109.786 25.8553 109.786 26.0753V28.6853C109.786 28.9003 109.816 29.0628 109.876 29.1728C109.936 29.2778 110.021 29.3478 110.131 29.3828C110.241 29.4178 110.368 29.4353 110.513 29.4353ZM110.183 24.8303L110.783 24.2303H111.181L110.431 24.8303H110.183ZM113.38 29.5778V25.1453H113.703L115.225 28.8128V25.1453H115.555V29.5778H115.218L113.718 26.0153V29.5778H113.38Z" fill="white"/>
</svg>
